<svg viewBox="0 0 512 512"><rect width="512" height="512" fill="#FDFCFC"/><path d="M 76.7,186.6 86.0,177.0 97.0,168.3 107.0,162.2 121.6,155.8 136.2,151.7 149.5,149.9 164.4,149.9 179.2,151.9 192.8,155.8 207.1,162.2 217.6,168.6 229.9,178.6 238.7,187.9 248.2,201.2 254.1,212.5 259.6,227.7 262.5,218.4 267.4,207.4 273.3,197.4 279.9,188.4 286.3,181.2 294.7,173.7 301.8,168.3 312.3,161.9 321.0,157.8 331.8,154.0 343.8,151.2 354.8,149.9 369.7,149.9 376.8,150.7 389.4,153.2 399.6,156.5 406.3,159.4 418.0,165.8 427.5,172.4 434.7,178.6 442.8,187.1 442.8,198.4 434.0,187.9 422.7,177.5 409.9,169.1 395.8,162.7 381.4,158.6 366.3,156.8 351.0,157.3 342.5,158.6 333.3,160.9 320.5,165.8 305.7,174.2 295.9,181.9 287.9,190.0 283.0,195.8 274.6,208.9 268.2,223.5 264.1,239.6 263.0,252.4 442.1,312.7 442.8,313.1 442.8,324.6 434.4,333.4 421.6,343.7 412.4,349.3 396.0,356.5 385.3,359.6 369.2,361.9 354.6,361.9 338.7,359.6 325.6,355.7 310.5,348.8 301.1,342.9 290.8,334.7 281.2,324.9 271.5,311.6 264.8,299.0 259.6,284.0 255.1,297.0 250.2,306.9 240.8,321.3 234.6,328.4 225.3,337.3 217.6,343.2 208.6,348.8 198.7,353.7 188.2,357.5 177.9,360.1 164.9,361.9 150.0,361.9 139.0,360.6 129.8,358.5 118.8,354.9 109.1,350.6 100.1,345.5 86.3,335.0 76.7,325.1 76.7,314.1 87.0,326.0 93.2,331.6 100.9,337.5 115.7,346.0 131.3,351.6 146.4,354.4 154.6,354.9 165.1,354.7 182.0,351.9 197.9,346.2 213.0,337.8 225.0,328.1 231.8,321.0 237.2,314.4 242.6,306.2 246.7,298.5 252.5,282.9 254.6,274.2 255.9,264.7 255.9,247.0 253.3,231.7 249.7,220.4 243.6,207.4 237.2,197.4 229.2,187.9 220.4,179.6 208.6,171.1 195.6,164.5 183.0,160.1 172.0,157.8 161.5,156.8 149.2,157.1 136.4,158.8 125.4,161.9 118.0,164.7 103.9,172.2 91.1,181.9 83.1,190.0 76.8,197.8 76.7,186.6 Z M 263.0,260.1 264.3,273.7 268.2,288.3 274.6,302.8 281.5,313.9 291.7,325.9 301.8,334.7 314.4,342.9 327.9,349.1 342.5,353.2 357.4,354.9 373.2,354.4 387.8,351.6 402.7,346.2 417.0,338.3 427.0,330.6 438.4,319.0 263.0,260.1 Z M 155.4,239.5 161.5,240.0 167.4,243.1 171.1,247.3 173.4,254.0 172.9,260.4 169.6,266.5 165.1,270.2 158.5,272.3 152.8,271.7 147.5,269.2 143.2,264.7 140.9,258.8 140.9,252.7 143.7,246.3 149.0,241.5 155.4,239.5 Z" fill="#17181C" fill-rule="evenodd"/></svg>